<?xml version="1.0" encoding="UTF-8"?>
<svg xmlns="http://www.w3.org/2000/svg" width="105" height="30" viewBox="0 0 105 30" fill="none">
  <path fill-rule="evenodd" clip-rule="evenodd" d="M22.8103 2.12266C22.8103 3.29481 21.856 4.24531 20.6793 4.24531C19.502 4.24531 18.5478 3.29481 18.5478 2.12266C18.5478 0.950502 19.502 0 20.6793 0C21.856 0 22.8103 0.950502 22.8103 2.12266ZM58.4247 22.6815V12.9887C58.4247 9.24557 56.3216 6.98292 52.8723 6.98292C50.4886 6.98292 48.806 8.04453 47.7124 9.83221V2.15042L44.5435 2.83538V22.6815H47.7124V14.7208C47.7124 11.7599 49.1708 9.99998 51.8628 9.99998C54.1901 9.99998 55.2559 11.2566 55.2559 13.6309V22.6815H58.4247ZM22.2619 22.6814H19.0931V7.31838H22.2619V22.6814ZM79.4297 19.6647L79.4861 19.637L82.5707 16.9832L82.7558 16.822C86.6444 13.4369 88.6558 11.6859 88.6558 8.7709C88.6558 5.47498 86.048 2.79291 81.8697 2.79291C78.0176 2.79291 75.2001 5.09222 74.5292 8.79868H77.7611C78.2993 6.9349 79.5753 5.80996 81.7291 5.80996C84.1406 5.80996 85.459 7.20655 85.459 8.91034C85.459 10.6425 84.337 11.6202 79.9345 15.4466L74.5209 20.1753L75.068 22.6812H88.8621L89.5208 19.6647H79.4297ZM94.4847 10.8935C95.4663 10.1397 96.6999 9.66468 98.3825 9.66468C101.972 9.66468 105.001 12.0668 105.001 16.1171C105.001 20.2791 101.832 23.0167 97.6814 23.0167C94.9002 23.0167 92.2913 21.8657 90.9394 19.5475L93.5818 17.7131C94.3179 19.248 95.8639 20.028 97.6536 20.028C100.121 20.028 101.776 18.3242 101.776 16.0893C101.776 13.7711 100.065 12.2906 97.7093 12.2906C95.9074 12.2906 94.6782 13.0473 93.9237 14.0789L91.1602 12.1579L93.1306 3.12839H103.382L102.724 6.14488H95.5215L94.4847 10.8935ZM28.7504 14.9159C28.7504 17.7935 30.685 19.8323 33.3492 19.8323C36.0412 19.8323 38.0885 17.7935 38.0885 14.9159C38.0885 12.0666 36.0412 10.0001 33.3492 10.0001C30.6572 10.0001 28.7504 12.0666 28.7504 14.9159ZM38.0618 9.22118V7.3185H41.2301V22.486C41.2301 27.0668 38.3417 30 33.7708 30C32.9315 30 32.1133 29.8944 31.3398 29.6917L31.946 26.9118C32.4792 27.0857 33.0631 27.1785 33.6866 27.1785C36.5191 27.1785 38.0618 25.5864 38.0618 22.5976V19.9717C36.9118 21.676 35.0608 22.8493 32.6771 22.8493C28.5552 22.8493 25.5542 19.525 25.5542 14.9159C25.5542 10.3072 28.6109 6.98297 32.6771 6.98297C35.0608 6.98297 36.9871 7.72293 38.0618 9.22118ZM7.9618 9.72049C10.2891 9.72049 11.888 11.201 12.3643 13.2958H3.39088C3.92348 11.2287 5.5503 9.72049 7.9618 9.72049ZM11.6716 18.7206C10.8462 19.7255 9.55343 20.2516 8.04819 20.2516C5.46826 20.2516 3.47727 18.6872 3.22463 15.8657H15.7601C16.0685 10.8099 12.9275 6.9829 7.96398 6.9829C3.30884 6.9829 0 10.391 0 15.028C0 19.6644 3.33673 23.017 8.02031 23.017C9.59637 23.017 11.0932 22.6381 12.3587 21.8682L11.6716 18.7206ZM67.3736 23.0165C69.1398 23.0165 70.935 22.4021 71.7761 21.8994L71.215 19.3295C70.0093 19.7484 68.9156 20.0839 67.9341 20.0839C65.9431 20.0839 64.9057 18.8545 64.9057 16.6202V10.2795H70.5697L71.2156 7.31851H64.9057V2.15047L61.7369 2.83877V7.31851H60.0794V10.2795H64.9057L61.7369 12.4793V16.7874C61.7369 21.0333 64.2047 23.0165 67.3736 23.0165Z" fill="#4E008E"></path>
</svg>
